<svg width="354" height="100" viewBox="0 0 354 100" fill="none" xmlns="http://www.w3.org/2000/svg">
<path d="M201.492 20H199.977L193.734 10.4141H193.672C193.755 11.5391 193.797 12.5703 193.797 13.5078V20H192.57V8.57812H194.07L200.297 18.125H200.359C200.349 17.9844 200.326 17.5339 200.289 16.7734C200.253 16.0078 200.24 15.4609 200.25 15.1328V8.57812H201.492V20ZM208.055 20.1562C206.789 20.1562 205.789 19.7708 205.055 19C204.326 18.2292 203.961 17.1589 203.961 15.7891C203.961 14.4089 204.299 13.3125 204.977 12.5C205.659 11.6875 206.573 11.2812 207.719 11.2812C208.792 11.2812 209.641 11.6354 210.266 12.3438C210.891 13.0469 211.203 13.9766 211.203 15.1328V15.9531H205.305C205.331 16.9583 205.583 17.7214 206.062 18.2422C206.547 18.763 207.227 19.0234 208.102 19.0234C209.023 19.0234 209.935 18.8307 210.836 18.4453V19.6016C210.378 19.7995 209.943 19.9401 209.531 20.0234C209.125 20.112 208.633 20.1562 208.055 20.1562ZM207.703 12.3672C207.016 12.3672 206.466 12.5911 206.055 13.0391C205.648 13.487 205.409 14.1068 205.336 14.8984H209.812C209.812 14.0807 209.63 13.4557 209.266 13.0234C208.901 12.5859 208.38 12.3672 207.703 12.3672ZM215.297 20L212.047 11.4375H213.438L215.281 16.5156C215.698 17.7031 215.943 18.474 216.016 18.8281H216.078C216.135 18.5521 216.315 17.9818 216.617 17.1172C216.924 16.2474 217.609 14.3542 218.672 11.4375H220.062L216.812 20H215.297ZM225.055 20.1562C223.789 20.1562 222.789 19.7708 222.055 19C221.326 18.2292 220.961 17.1589 220.961 15.7891C220.961 14.4089 221.299 13.3125 221.977 12.5C222.659 11.6875 223.573 11.2812 224.719 11.2812C225.792 11.2812 226.641 11.6354 227.266 12.3438C227.891 13.0469 228.203 13.9766 228.203 15.1328V15.9531H222.305C222.331 16.9583 222.583 17.7214 223.062 18.2422C223.547 18.763 224.227 19.0234 225.102 19.0234C226.023 19.0234 226.935 18.8307 227.836 18.4453V19.6016C227.378 19.7995 226.943 19.9401 226.531 20.0234C226.125 20.112 225.633 20.1562 225.055 20.1562ZM224.703 12.3672C224.016 12.3672 223.466 12.5911 223.055 13.0391C222.648 13.487 222.409 14.1068 222.336 14.8984H226.812C226.812 14.0807 226.63 13.4557 226.266 13.0234C225.901 12.5859 225.38 12.3672 224.703 12.3672ZM234.328 11.2812C234.708 11.2812 235.049 11.3125 235.352 11.375L235.172 12.5781C234.818 12.5 234.505 12.4609 234.234 12.4609C233.542 12.4609 232.948 12.7422 232.453 13.3047C231.964 13.8672 231.719 14.5677 231.719 15.4062V20H230.422V11.4375H231.492L231.641 13.0234H231.703C232.021 12.4661 232.404 12.0365 232.852 11.7344C233.299 11.4323 233.792 11.2812 234.328 11.2812ZM252.023 20V14.4297C252.023 13.7474 251.878 13.237 251.586 12.8984C251.294 12.5547 250.841 12.3828 250.227 12.3828C249.419 12.3828 248.823 12.6146 248.438 13.0781C248.052 13.5417 247.859 14.2552 247.859 15.2188V20H246.562V14.4297C246.562 13.7474 246.417 13.237 246.125 12.8984C245.833 12.5547 245.378 12.3828 244.758 12.3828C243.945 12.3828 243.349 12.6276 242.969 13.1172C242.594 13.6016 242.406 14.3984 242.406 15.5078V20H241.109V11.4375H242.164L242.375 12.6094H242.438C242.682 12.1927 243.026 11.8672 243.469 11.6328C243.917 11.3984 244.417 11.2812 244.969 11.2812C246.307 11.2812 247.182 11.7656 247.594 12.7344H247.656C247.911 12.2865 248.281 11.9323 248.766 11.6719C249.25 11.4115 249.802 11.2812 250.422 11.2812C251.391 11.2812 252.115 11.5312 252.594 12.0312C253.078 12.526 253.32 13.3203 253.32 14.4141V20H252.023ZM257.297 20H256V11.4375H257.297V20ZM255.891 9.11719C255.891 8.82031 255.964 8.60417 256.109 8.46875C256.255 8.32812 256.438 8.25781 256.656 8.25781C256.865 8.25781 257.044 8.32812 257.195 8.46875C257.346 8.60938 257.422 8.82552 257.422 9.11719C257.422 9.40885 257.346 9.6276 257.195 9.77344C257.044 9.91406 256.865 9.98438 256.656 9.98438C256.438 9.98438 256.255 9.91406 256.109 9.77344C255.964 9.6276 255.891 9.40885 255.891 9.11719ZM265.57 17.6641C265.57 18.4609 265.273 19.0755 264.68 19.5078C264.086 19.9401 263.253 20.1562 262.18 20.1562C261.044 20.1562 260.159 19.9766 259.523 19.6172V18.4141C259.935 18.6224 260.375 18.7865 260.844 18.9062C261.318 19.026 261.773 19.0859 262.211 19.0859C262.888 19.0859 263.409 18.9792 263.773 18.7656C264.138 18.5469 264.32 18.2161 264.32 17.7734C264.32 17.4401 264.174 17.1562 263.883 16.9219C263.596 16.6823 263.034 16.401 262.195 16.0781C261.398 15.7812 260.831 15.5234 260.492 15.3047C260.159 15.0807 259.909 14.8281 259.742 14.5469C259.581 14.2656 259.5 13.9297 259.5 13.5391C259.5 12.8411 259.784 12.2917 260.352 11.8906C260.919 11.4844 261.698 11.2812 262.688 11.2812C263.609 11.2812 264.51 11.4688 265.391 11.8438L264.93 12.8984C264.07 12.5443 263.292 12.3672 262.594 12.3672C261.979 12.3672 261.516 12.4635 261.203 12.6562C260.891 12.849 260.734 13.1146 260.734 13.4531C260.734 13.6823 260.792 13.8776 260.906 14.0391C261.026 14.2005 261.216 14.3542 261.477 14.5C261.737 14.6458 262.237 14.8568 262.977 15.1328C263.992 15.5026 264.677 15.875 265.031 16.25C265.391 16.625 265.57 17.0964 265.57 17.6641ZM273.211 17.6641C273.211 18.4609 272.914 19.0755 272.32 19.5078C271.727 19.9401 270.893 20.1562 269.82 20.1562C268.685 20.1562 267.799 19.9766 267.164 19.6172V18.4141C267.576 18.6224 268.016 18.7865 268.484 18.9062C268.958 19.026 269.414 19.0859 269.852 19.0859C270.529 19.0859 271.049 18.9792 271.414 18.7656C271.779 18.5469 271.961 18.2161 271.961 17.7734C271.961 17.4401 271.815 17.1562 271.523 16.9219C271.237 16.6823 270.674 16.401 269.836 16.0781C269.039 15.7812 268.471 15.5234 268.133 15.3047C267.799 15.0807 267.549 14.8281 267.383 14.5469C267.221 14.2656 267.141 13.9297 267.141 13.5391C267.141 12.8411 267.424 12.2917 267.992 11.8906C268.56 11.4844 269.339 11.2812 270.328 11.2812C271.25 11.2812 272.151 11.4688 273.031 11.8438L272.57 12.8984C271.711 12.5443 270.932 12.3672 270.234 12.3672C269.62 12.3672 269.156 12.4635 268.844 12.6562C268.531 12.849 268.375 13.1146 268.375 13.4531C268.375 13.6823 268.432 13.8776 268.547 14.0391C268.667 14.2005 268.857 14.3542 269.117 14.5C269.378 14.6458 269.878 14.8568 270.617 15.1328C271.633 15.5026 272.318 15.875 272.672 16.25C273.031 16.625 273.211 17.0964 273.211 17.6641ZM284.75 20L284.492 18.7812H284.43C284.003 19.3177 283.576 19.6823 283.148 19.875C282.727 20.0625 282.198 20.1562 281.562 20.1562C280.714 20.1562 280.047 19.9375 279.562 19.5C279.083 19.0625 278.844 18.4401 278.844 17.6328C278.844 15.9036 280.227 14.9974 282.992 14.9141L284.445 14.8672V14.3359C284.445 13.6641 284.299 13.1693 284.008 12.8516C283.721 12.5286 283.26 12.3672 282.625 12.3672C281.911 12.3672 281.104 12.5859 280.203 13.0234L279.805 12.0312C280.227 11.8021 280.688 11.6224 281.188 11.4922C281.693 11.362 282.198 11.2969 282.703 11.2969C283.724 11.2969 284.479 11.5234 284.969 11.9766C285.464 12.4297 285.711 13.1562 285.711 14.1562V20H284.75ZM281.82 19.0859C282.628 19.0859 283.26 18.8646 283.719 18.4219C284.182 17.9792 284.414 17.3594 284.414 16.5625V15.7891L283.117 15.8438C282.086 15.8802 281.341 16.0417 280.883 16.3281C280.43 16.6094 280.203 17.0495 280.203 17.6484C280.203 18.1172 280.344 18.474 280.625 18.7188C280.911 18.9635 281.31 19.0859 281.82 19.0859ZM294.25 20V14.4609C294.25 13.763 294.091 13.2422 293.773 12.8984C293.456 12.5547 292.958 12.3828 292.281 12.3828C291.385 12.3828 290.729 12.625 290.312 13.1094C289.896 13.5938 289.688 14.3932 289.688 15.5078V20H288.391V11.4375H289.445L289.656 12.6094H289.719C289.984 12.1875 290.357 11.862 290.836 11.6328C291.315 11.3984 291.849 11.2812 292.438 11.2812C293.469 11.2812 294.245 11.5312 294.766 12.0312C295.286 12.526 295.547 13.3203 295.547 14.4141V20H294.25ZM303.594 11.4375V16.9922C303.594 17.6901 303.753 18.2109 304.07 18.5547C304.388 18.8984 304.885 19.0703 305.562 19.0703C306.458 19.0703 307.112 18.8255 307.523 18.3359C307.94 17.8464 308.148 17.0469 308.148 15.9375V11.4375H309.445V20H308.375L308.188 18.8516H308.117C307.852 19.2734 307.482 19.5964 307.008 19.8203C306.539 20.0443 306.003 20.1562 305.398 20.1562C304.357 20.1562 303.576 19.9089 303.055 19.4141C302.539 18.9193 302.281 18.1276 302.281 17.0391V11.4375H303.594ZM316.188 20.1562C315.63 20.1562 315.12 20.0547 314.656 19.8516C314.198 19.6432 313.812 19.3255 313.5 18.8984H313.406C313.469 19.3984 313.5 19.8724 313.5 20.3203V23.8438H312.203V11.4375H313.258L313.438 12.6094H313.5C313.833 12.1406 314.221 11.8021 314.664 11.5938C315.107 11.3854 315.615 11.2812 316.188 11.2812C317.323 11.2812 318.198 11.6693 318.812 12.4453C319.432 13.2214 319.742 14.3099 319.742 15.7109C319.742 17.1172 319.427 18.2109 318.797 18.9922C318.172 19.7682 317.302 20.1562 316.188 20.1562ZM316 12.3828C315.125 12.3828 314.492 12.625 314.102 13.1094C313.711 13.5938 313.51 14.3646 313.5 15.4219V15.7109C313.5 16.9141 313.701 17.776 314.102 18.2969C314.503 18.8125 315.146 19.0703 316.031 19.0703C316.771 19.0703 317.349 18.7708 317.766 18.1719C318.188 17.5729 318.398 16.7474 318.398 15.6953C318.398 14.6276 318.188 13.8099 317.766 13.2422C317.349 12.6693 316.76 12.3828 316 12.3828ZM327.844 18.8516H327.773C327.174 19.7214 326.279 20.1562 325.086 20.1562C323.966 20.1562 323.094 19.7734 322.469 19.0078C321.849 18.2422 321.539 17.1536 321.539 15.7422C321.539 14.3307 321.852 13.2344 322.477 12.4531C323.102 11.6719 323.971 11.2812 325.086 11.2812C326.247 11.2812 327.138 11.7031 327.758 12.5469H327.859L327.805 11.9297L327.773 11.3281V7.84375H329.07V20H328.016L327.844 18.8516ZM325.25 19.0703C326.135 19.0703 326.776 18.8307 327.172 18.3516C327.573 17.8672 327.773 17.0885 327.773 16.0156V15.7422C327.773 14.5286 327.57 13.6641 327.164 13.1484C326.763 12.6276 326.12 12.3672 325.234 12.3672C324.474 12.3672 323.891 12.6641 323.484 13.2578C323.083 13.8464 322.883 14.6797 322.883 15.7578C322.883 16.8516 323.083 17.6771 323.484 18.2344C323.885 18.7917 324.474 19.0703 325.25 19.0703ZM337.094 20L336.836 18.7812H336.773C336.346 19.3177 335.919 19.6823 335.492 19.875C335.07 20.0625 334.542 20.1562 333.906 20.1562C333.057 20.1562 332.391 19.9375 331.906 19.5C331.427 19.0625 331.188 18.4401 331.188 17.6328C331.188 15.9036 332.57 14.9974 335.336 14.9141L336.789 14.8672V14.3359C336.789 13.6641 336.643 13.1693 336.352 12.8516C336.065 12.5286 335.604 12.3672 334.969 12.3672C334.255 12.3672 333.448 12.5859 332.547 13.0234L332.148 12.0312C332.57 11.8021 333.031 11.6224 333.531 11.4922C334.036 11.362 334.542 11.2969 335.047 11.2969C336.068 11.2969 336.823 11.5234 337.312 11.9766C337.807 12.4297 338.055 13.1562 338.055 14.1562V20H337.094ZM334.164 19.0859C334.971 19.0859 335.604 18.8646 336.062 18.4219C336.526 17.9792 336.758 17.3594 336.758 16.5625V15.7891L335.461 15.8438C334.43 15.8802 333.685 16.0417 333.227 16.3281C332.773 16.6094 332.547 17.0495 332.547 17.6484C332.547 18.1172 332.688 18.474 332.969 18.7188C333.255 18.9635 333.654 19.0859 334.164 19.0859ZM343.5 19.0859C343.729 19.0859 343.951 19.0703 344.164 19.0391C344.378 19.0026 344.547 18.9661 344.672 18.9297V19.9219C344.531 19.9896 344.323 20.0443 344.047 20.0859C343.776 20.1328 343.531 20.1562 343.312 20.1562C341.656 20.1562 340.828 19.2839 340.828 17.5391V12.4453H339.602V11.8203L340.828 11.2812L341.375 9.45312H342.125V11.4375H344.609V12.4453H342.125V17.4844C342.125 18 342.247 18.3958 342.492 18.6719C342.737 18.9479 343.073 19.0859 343.5 19.0859ZM350.008 20.1562C348.742 20.1562 347.742 19.7708 347.008 19C346.279 18.2292 345.914 17.1589 345.914 15.7891C345.914 14.4089 346.253 13.3125 346.93 12.5C347.612 11.6875 348.526 11.2812 349.672 11.2812C350.745 11.2812 351.594 11.6354 352.219 12.3438C352.844 13.0469 353.156 13.9766 353.156 15.1328V15.9531H347.258C347.284 16.9583 347.536 17.7214 348.016 18.2422C348.5 18.763 349.18 19.0234 350.055 19.0234C350.977 19.0234 351.888 18.8307 352.789 18.4453V19.6016C352.331 19.7995 351.896 19.9401 351.484 20.0234C351.078 20.112 350.586 20.1562 350.008 20.1562ZM349.656 12.3672C348.969 12.3672 348.419 12.5911 348.008 13.0391C347.602 13.487 347.362 14.1068 347.289 14.8984H351.766C351.766 14.0807 351.583 13.4557 351.219 13.0234C350.854 12.5859 350.333 12.3672 349.656 12.3672Z" fill="#212121"/>
<g clip-path="url(#clip0_3180_3276)">
<path d="M290 53H351C352.105 53 353 53.8954 353 55V96.913C353 98.0176 352.105 98.913 351 98.913H290V53Z" fill="#0D6EFD"/>
<path fill-rule="evenodd" clip-rule="evenodd" d="M315.55 73.8944C315.261 73.5925 315.261 73.1031 315.55 72.8012C315.813 72.5268 316.225 72.5019 316.515 72.7264L316.598 72.8012L322 78.4379L327.402 72.8012C327.665 72.5268 328.077 72.5019 328.367 72.7264L328.45 72.8012C328.713 73.0757 328.737 73.5051 328.521 73.8077L328.45 73.8944L322.524 80.0779C322.261 80.3523 321.849 80.3773 321.559 80.1528L321.476 80.0779L315.55 73.8944Z" fill="white"/>
</g>
<path d="M23.7109 73.918C23.7109 74.9297 23.3646 75.709 22.6719 76.2559C21.9837 76.7982 20.9971 77.0693 19.7119 77.0693H18.5361V81H17.374V71.0059H19.9648C22.4622 71.0059 23.7109 71.9766 23.7109 73.918ZM18.5361 76.0713H19.582C20.612 76.0713 21.3571 75.9049 21.8174 75.5723C22.2777 75.2396 22.5078 74.7064 22.5078 73.9727C22.5078 73.3118 22.2913 72.8197 21.8584 72.4961C21.4255 72.1725 20.751 72.0107 19.835 72.0107H18.5361V76.0713ZM26.7734 81H25.6387V70.3633H26.7734V81ZM33.7871 81L33.5615 79.9336H33.5068C33.1331 80.403 32.7594 80.722 32.3857 80.8906C32.0166 81.0547 31.554 81.1367 30.998 81.1367C30.2552 81.1367 29.6719 80.9453 29.248 80.5625C28.8288 80.1797 28.6191 79.6351 28.6191 78.9287C28.6191 77.4157 29.8291 76.6227 32.249 76.5498L33.5205 76.5088V76.0439C33.5205 75.4561 33.3929 75.0231 33.1377 74.7451C32.887 74.4626 32.4837 74.3213 31.9277 74.3213C31.3034 74.3213 30.597 74.5127 29.8086 74.8955L29.46 74.0273C29.8291 73.8268 30.2324 73.6696 30.6699 73.5557C31.112 73.4417 31.554 73.3848 31.9961 73.3848C32.8893 73.3848 33.5501 73.583 33.9785 73.9795C34.4115 74.376 34.6279 75.0117 34.6279 75.8867V81H33.7871ZM31.2236 80.2002C31.93 80.2002 32.4837 80.0065 32.8848 79.6191C33.2904 79.2318 33.4932 78.6895 33.4932 77.9922V77.3154L32.3584 77.3633C31.4561 77.3952 30.8044 77.5365 30.4033 77.7871C30.0068 78.0332 29.8086 78.4183 29.8086 78.9424C29.8086 79.3525 29.9316 79.6647 30.1777 79.8789C30.4284 80.0931 30.777 80.2002 31.2236 80.2002ZM39.9668 81.1367C38.8822 81.1367 38.0413 80.804 37.4443 80.1387C36.8519 79.4688 36.5557 78.5231 36.5557 77.3018C36.5557 76.0485 36.8564 75.0801 37.458 74.3965C38.0641 73.7129 38.9255 73.3711 40.042 73.3711C40.402 73.3711 40.762 73.4098 41.1221 73.4873C41.4821 73.5648 41.7646 73.6559 41.9697 73.7607L41.6211 74.7246C41.3704 74.6243 41.097 74.5423 40.8008 74.4785C40.5046 74.4102 40.2425 74.376 40.0146 74.376C38.4925 74.376 37.7314 75.3467 37.7314 77.2881C37.7314 78.2087 37.916 78.915 38.2852 79.4072C38.6589 79.8994 39.2103 80.1455 39.9395 80.1455C40.5638 80.1455 41.2041 80.0111 41.8604 79.7422V80.7471C41.359 81.0068 40.7279 81.1367 39.9668 81.1367ZM46.8096 81.1367C45.7021 81.1367 44.8271 80.7995 44.1846 80.125C43.5465 79.4505 43.2275 78.514 43.2275 77.3154C43.2275 76.1077 43.5238 75.1484 44.1162 74.4375C44.7132 73.7266 45.513 73.3711 46.5156 73.3711C47.4544 73.3711 48.1973 73.681 48.7441 74.3008C49.291 74.916 49.5645 75.7295 49.5645 76.7412V77.459H44.4033C44.4261 78.3385 44.6471 79.0062 45.0664 79.4619C45.4902 79.9176 46.085 80.1455 46.8506 80.1455C47.6572 80.1455 48.4548 79.9769 49.2432 79.6396V80.6514C48.8421 80.8245 48.4616 80.9476 48.1016 81.0205C47.7461 81.098 47.3154 81.1367 46.8096 81.1367ZM46.502 74.3213C45.9004 74.3213 45.4196 74.5173 45.0596 74.9092C44.7041 75.3011 44.4945 75.8434 44.4307 76.5361H48.3477C48.3477 75.8206 48.1882 75.2738 47.8691 74.8955C47.5501 74.5127 47.0944 74.3213 46.502 74.3213ZM56.6328 81V76.1533C56.6328 75.5426 56.4938 75.0869 56.2158 74.7861C55.9378 74.4854 55.5026 74.335 54.9102 74.335C54.1217 74.335 53.5452 74.5492 53.1807 74.9775C52.8206 75.4059 52.6406 76.1077 52.6406 77.083V81H51.5059V70.3633H52.6406V73.583C52.6406 73.9704 52.6224 74.2917 52.5859 74.5469H52.6543C52.8776 74.1868 53.1943 73.9043 53.6045 73.6992C54.0192 73.4896 54.4909 73.3848 55.0195 73.3848C55.9355 73.3848 56.6214 73.6035 57.0771 74.041C57.5374 74.474 57.7676 75.1644 57.7676 76.1123V81H56.6328ZM66.5723 77.2471C66.5723 78.4684 66.2646 79.4232 65.6494 80.1113C65.0342 80.7949 64.1842 81.1367 63.0996 81.1367C62.4297 81.1367 61.835 80.9795 61.3154 80.665C60.7959 80.3506 60.3949 79.8994 60.1123 79.3115C59.8298 78.7236 59.6885 78.0355 59.6885 77.2471C59.6885 76.0257 59.9938 75.0755 60.6045 74.3965C61.2152 73.7129 62.0628 73.3711 63.1475 73.3711C64.1956 73.3711 65.0273 73.7197 65.6426 74.417C66.2624 75.1143 66.5723 76.0576 66.5723 77.2471ZM60.8643 77.2471C60.8643 78.2041 61.0557 78.9333 61.4385 79.4346C61.8213 79.9359 62.3841 80.1865 63.127 80.1865C63.8698 80.1865 64.4326 79.9382 64.8154 79.4414C65.2028 78.9401 65.3965 78.2087 65.3965 77.2471C65.3965 76.2946 65.2028 75.5723 64.8154 75.0801C64.4326 74.5833 63.8652 74.335 63.1133 74.335C62.3704 74.335 61.8099 74.5788 61.4316 75.0664C61.0534 75.554 60.8643 76.2809 60.8643 77.2471ZM69.7031 81H68.5684V70.3633H69.7031V81ZM77.209 79.9951H77.1475C76.6234 80.7562 75.8395 81.1367 74.7959 81.1367C73.8161 81.1367 73.0527 80.8018 72.5059 80.1318C71.9635 79.4619 71.6924 78.5094 71.6924 77.2744C71.6924 76.0394 71.9658 75.0801 72.5127 74.3965C73.0596 73.7129 73.8206 73.3711 74.7959 73.3711C75.8122 73.3711 76.5915 73.7402 77.1338 74.4785H77.2227L77.1748 73.9385L77.1475 73.4121V70.3633H78.2822V81H77.3594L77.209 79.9951ZM74.9395 80.1865C75.7142 80.1865 76.2747 79.9769 76.6211 79.5576C76.972 79.1338 77.1475 78.4525 77.1475 77.5137V77.2744C77.1475 76.2126 76.9697 75.4561 76.6143 75.0049C76.2633 74.5492 75.7005 74.3213 74.9258 74.3213C74.2604 74.3213 73.75 74.5811 73.3945 75.1006C73.0436 75.6156 72.8682 76.3447 72.8682 77.2881C72.8682 78.2451 73.0436 78.9674 73.3945 79.4551C73.7454 79.9427 74.2604 80.1865 74.9395 80.1865ZM83.8604 81.1367C82.7529 81.1367 81.8779 80.7995 81.2354 80.125C80.5973 79.4505 80.2783 78.514 80.2783 77.3154C80.2783 76.1077 80.5745 75.1484 81.167 74.4375C81.764 73.7266 82.5638 73.3711 83.5664 73.3711C84.5052 73.3711 85.248 73.681 85.7949 74.3008C86.3418 74.916 86.6152 75.7295 86.6152 76.7412V77.459H81.4541C81.4769 78.3385 81.6979 79.0062 82.1172 79.4619C82.541 79.9176 83.1357 80.1455 83.9014 80.1455C84.708 80.1455 85.5055 79.9769 86.2939 79.6396V80.6514C85.8929 80.8245 85.5124 80.9476 85.1523 81.0205C84.7969 81.098 84.3662 81.1367 83.8604 81.1367ZM83.5527 74.3213C82.9512 74.3213 82.4704 74.5173 82.1104 74.9092C81.7549 75.3011 81.5452 75.8434 81.4814 76.5361H85.3984C85.3984 75.8206 85.2389 75.2738 84.9199 74.8955C84.6009 74.5127 84.1452 74.3213 83.5527 74.3213ZM91.9746 73.3711C92.3073 73.3711 92.6058 73.3984 92.8701 73.4531L92.7129 74.5059C92.403 74.4375 92.1296 74.4033 91.8926 74.4033C91.2865 74.4033 90.7669 74.6494 90.334 75.1416C89.9056 75.6338 89.6914 76.2467 89.6914 76.9805V81H88.5566V73.5078H89.4932L89.623 74.8955H89.6777C89.9557 74.4079 90.2907 74.0319 90.6826 73.7676C91.0745 73.5033 91.5052 73.3711 91.9746 73.3711Z" fill="#807E7E"/>
<rect x="0.5" y="52.5" width="353" height="47" rx="2.5" stroke="#EAEAEA"/>
<defs>
<clipPath id="clip0_3180_3276">
<rect width="63" height="45.913" fill="white" transform="translate(290 53)"/>
</clipPath>
</defs>
</svg>
